<svg version="1.1" id="图层_1" xmlns="http://www.w3.org/2000/svg" x="0" y="0" viewBox="0 0 256 256" xml:space="preserve"><style>.st0{fill:#eb6114}.st1{fill:#fff}</style><path class="st0" d="M205.7 256H50.3C22.5 256 0 233.5 0 205.7V50.3C0 22.5 22.5 0 50.3 0h155.5C233.5 0 256 22.5 256 50.3v155.5c0 27.7-22.5 50.2-50.3 50.2z"/><path class="st1" d="M165.9 17.8c-.3 1.6-1 5.9-1.6 9.7-1.5 9.4-5.1 16.6-11.1 22-5.7 5.1-9.9 6.7-25.9 9.6-6.3 1.1-12.6 2.3-13.9 2.6l-2.4.5.6-8.8c.5-7.3 1.2-10 4.2-16 6.2-12.5 14.5-17.5 32.3-19.3 5.4-.6 11.1-1.4 12.7-1.9 2.6-.8 4-1.1 4.7-.9.7.2.7 1 .4 2.5z"/><circle class="st1" cx="129" cy="139.6" r="77"/><circle class="st0" cx="129" cy="139.6" r="42.3"/><circle class="st1" cx="129" cy="139.6" r="15.9"/></svg>